#!OML:ASF H:\Pregnant\Project 1\Capture day 1\Session 1\femalepreg.ASF
:FULLY-SPECIFIED
:DEGREES
390
root 1.23178 15.7164 31.533 -209.697 -86.3653 229.778
lowerback -27.3613 1.33527 1.33937
upperback -8.44962 0.423143 1.69587
thorax 5.70807 -0.129695 1.19181
lowerneck -19.1791 3.43247 4.27108
upperneck 24.8336 4.36516 -3.86099
head 11.4535 1.78525 -1.48428
rclavicle -5.61567e-015 1.90833e-014
rhumerus -49.3166 4.83474 -80.77
rradius 24.6287
rwrist -15.8402
rhand -18.7279 -24.9031
rfingers 7.12502
rthumb 7.56783 -54.7477
lclavicle -5.61567e-015 1.90833e-014
lhumerus -46.491 -8.42305 89.6487
lradius 37.3585
lwrist 38.5903
lhand -24.9973 2.8828
lfingers 7.12502
lthumb 1.51421 32.8572
rfemur -28.3308 19.4655 21.7671
rtibia 26.1819
rfoot -12.9063 -14.3923
rtoes 3.89569
lfemur 0 0 0
ltibia 0
lfoot 0 0
ltoes 0
391
root 1.2307 15.7138 31.5374 -209.572 -86.2302 229.533
lowerback -27.3896 1.32482 1.37992
upperback -8.47378 0.392076 1.71634
thorax 5.69546 -0.146781 1.18133
lowerneck -19.1367 3.44143 4.2752
upperneck 24.856 4.36881 -3.83117
head 11.4532 1.79075 -1.47413
rclavicle 1.75427e-014 1.07344e-014
rhumerus -49.265 4.07379 -80.4134
rradius 24.5537
rwrist -15.7193
rhand -18.5149 -24.9171
rfingers 7.12502
rthumb 7.7734 -54.7542
lclavicle 1.75427e-014 1.07344e-014
lhumerus -46.4123 -8.48976 89.6954
lradius 36.9726
lwrist 38.5757
lhand -25.1547 2.85819
lfingers 7.12502
lthumb 1.36212 32.8336
rfemur -28.1473 19.4929 21.883
rtibia 26.0836
rfoot -12.8618 -14.2906
rtoes 3.87005
lfemur 0 0 0
ltibia 0
lfoot 0 0
ltoes 0
392
root 1.23021 15.7112 31.5416 -209.531 -86.0797 229.367
lowerback -27.4079 1.31977 1.43824
upperback -8.49445 0.363758 1.73869
thorax 5.68201 -0.162406 1.16348
lowerneck -19.0945 3.45381 4.28676
upperneck 24.8753 4.37687 -3.80814
head 11.4524 1.79814 -1.46702
rclavicle 4.96962e-016 -1.23246e-014
rhumerus -49.1958 3.28843 -80.0543
rradius 24.4724
rwrist -15.6149
rhand -18.3271 -24.946
rfingers 7.12502
rthumb 7.95461 -54.7763
lclavicle 4.96962e-016 -1.23246e-014
lhumerus -46.3342 -8.56164 89.7377
lradius 36.5686
lwrist 38.5524
lhand -25.3042 2.84937
lfingers 7.12502
lthumb 1.21773 32.8256
rfemur -27.9527 19.5154 22.0174
rtibia 25.972
rfoot -12.8153 -14.1734
rtoes 3.84001
lfemur 0 0 0
ltibia 0
lfoot 0 0
ltoes 0
393
root 1.23045 15.7085 31.5457 -209.52 -85.9183 229.225
lowerback -27.4131 1.32235 1.50779
upperback -8.51149 0.343351 1.75953
thorax 5.66623 -0.173988 1.1399
lowerneck -19.0541 3.46565 4.29813
upperneck 24.8913 4.38512 -3.78847
head 11.4507 1.80521 -1.46104
rclavicle -6.55989e-015 -4.57205e-015
rhumerus -49.1145 2.47116 -79.6923
rradius 24.3913
rwrist -15.5371
rhand -18.1819 -24.9896
rfingers 7.12502
rthumb 8.09481 -54.8146
lclavicle -6.55989e-015 -4.57205e-015
lhumerus -46.2546 -8.65175 89.7815
lradius 36.1457
lwrist 38.5205
lhand -25.4409 2.85302
lfingers 7.12502
lthumb 1.0857 32.83
rfemur -27.7469 19.5379 22.1631
rtibia 25.847
rfoot -12.7674 -14.0453
rtoes 3.82958
lfemur 0 0 0
ltibia 0
lfoot 0 0
ltoes 0
394
root 1.23131 15.7058 31.5496 -209.535 -85.7472 229.104
lowerback -27.405 1.32054 1.57525
upperback -8.52425 0.31742 1.79608
thorax 5.64877 -0.187893 1.13299
lowerneck -19.0145 3.48226 4.28887
upperneck 24.9035 4.40668 -3.76847
head 11.4479 1.81636 -1.44936
rclavicle 6.06293e-015 -1.37161e-014
rhumerus -49.0164 1.69276 -79.3356
rradius 24.3186
rwrist -15.516
rhand -18.075 -25.0468
rfingers 7.12502
rthumb 8.19793 -54.8678
lclavicle 6.06293e-015 -1.37161e-014
lhumerus -46.1701 -8.71703 89.8324
lradius 35.7011
lwrist 38.4623
lhand -25.5681 2.86859
lfingers 7.12502
lthumb 0.962838 32.8462
rfemur -27.5288 19.5599 22.32
rtibia 25.7086
rfoot -12.7162 -13.9091
rtoes 3.82146
lfemur 0 0 0
ltibia 0
lfoot 0 0
ltoes 0
395
root 1.23272 15.7031 31.5533 -209.581 -85.5708 229.01
lowerback -27.3859 1.3217 1.64568
upperback -8.53341 0.295188 1.83554
thorax 5.62993 -0.199747 1.12865
lowerneck -18.9778 3.49841 4.27556
upperneck 24.917 4.42793 -3.74534
head 11.4459 1.82735 -1.43587
rclavicle 6.26172e-015 1.35174e-014
rhumerus -48.9151 0.973987 -79.0234
rradius 24.272
rwrist -15.6054
rhand -18.0016 -25.127
rfingers 7.12502
rthumb 8.26879 -54.9452
lclavicle 6.26172e-015 1.35174e-014
lhumerus -46.0836 -8.79828 89.8925
lradius 35.2415
lwrist 38.3941
lhand -25.6767 2.90152
lfingers 7.12502
lthumb 0.857962 32.8795
rfemur -27.302 19.5806 22.4841
rtibia 25.5606
rfoot -12.6649 -13.7694
rtoes 3.83659
lfemur 0 0 0
ltibia 0
lfoot 0 0
ltoes 0
396
root 1.23467 15.7005 31.557 -209.691 -85.3951 228.977
lowerback -27.3571 1.3263 1.72183
upperback -8.53987 0.276819 1.87412
thorax 5.60941 -0.209534 1.12122
lowerneck -18.9434 3.51193 4.24789
upperneck 24.9309 4.44595 -3.70804
head 11.4435 1.83733 -1.41523
rclavicle -4.96962e-016 -3.37934e-015
rhumerus -48.8106 0.302816 -78.7492
rradius 24.2533
rwrist -15.7824
rhand -17.9623 -25.2379
rfingers 7.12502
rthumb 8.30674 -55.0545
lclavicle -4.96962e-016 -3.37934e-015
lhumerus -45.9958 -8.89807 89.9606
lradius 34.7695
lwrist 38.3122
lhand -25.7626 2.94834
lfingers 7.12502
lthumb 0.775055 32.9267
rfemur -27.0696 19.5964 22.6531
rtibia 25.4063
rfoot -12.6135 -13.6278
rtoes 3.868
lfemur 0 0 0
ltibia 0
lfoot 0 0
ltoes 0
397
root 1.23693 15.6979 31.5607 -209.793 -85.2203 228.935
lowerback -27.3243 1.32729 1.79472
upperback -8.54269 0.254889 1.91679
thorax 5.59093 -0.220816 1.11906
lowerneck -18.9143 3.52889 4.22121
upperneck 24.9473 4.46801 -3.66919
head 11.4433 1.84936 -1.3935
rclavicle -4.27387e-015 6.16232e-015
rhumerus -48.7029 -0.267581 -78.5456
rradius 24.2724
rwrist -16.0866
rhand -17.9322 -25.3751
rfingers 7.12502
rthumb 8.33579 -55.1906
lclavicle -4.27387e-015 6.16232e-015
lhumerus -45.9056 -8.99197 90.0277
lradius 34.2878
lwrist 38.2059
lhand -25.8136 3.00502
lfingers 7.12502
lthumb 0.725744 32.9835
rfemur -26.837 19.6062 22.8225
rtibia 25.2519
rfoot -12.5632 -13.4841
rtoes 3.90148
lfemur 0 0 0
ltibia 0
lfoot 0 0
ltoes 0
398
root 1.23957 15.6954 31.5644 -209.847 -85.0494 228.847
lowerback -27.2877 1.33346 1.86956
upperback -8.54439 0.240434 1.94947
thorax 5.57188 -0.228432 1.10711
lowerneck -18.8925 3.54404 4.20546
upperneck 24.9713 4.48288 -3.62687
head 11.4473 1.8595 -1.37342
rclavicle 7.70291e-015 -3.4191e-014
rhumerus -48.6013 -0.834153 -78.3761
rradius 24.3201
rwrist -16.4239
rhand -17.9159 -25.5223
rfingers 7.12502
rthumb 8.35148 -55.3372
lclavicle 7.70291e-015 -3.4191e-014
lhumerus -45.8219 -9.11968 90.0972
lradius 33.8073
lwrist 38.0892
lhand -25.8492 3.0741
lfingers 7.12502
lthumb 0.691405 33.0527
rfemur -26.6094 19.6063 22.9874
rtibia 25.1021
rfoot -12.5135 -13.3359
rtoes 3.92407
lfemur 0 0 0
ltibia 0
lfoot 0 0
ltoes 0
399
root 1.24261 15.693 31.568 -209.801 -84.8835 228.663
lowerback -27.2499 1.33616 1.93456
upperback -8.54645 0.224515 1.97923
thorax 5.55177 -0.236741 1.09713
lowerneck -18.8789 3.56336 4.21498
upperneck 25.0017 4.50159 -3.60613
head 11.4568 1.87083 -1.36489
rclavicle -5.41688e-015 1.19271e-014
rhumerus -48.5042 -1.31858 -78.2798
rradius 24.406
rwrist -16.8515
rhand -17.8882 -25.6646
rfingers 7.12502
rthumb 8.3782 -55.4784
lclavicle -5.41688e-015 1.19271e-014
lhumerus -45.7457 -9.25046 90.1644
lradius 33.3279
lwrist 37.9486
lhand -25.8722 3.14824
lfingers 7.12502
lthumb 0.6692 33.1269
rfemur -26.3951 19.6014 23.1406
rtibia 24.9621
rfoot -12.4626 -13.1857
rtoes 3.9289
lfemur 0 0 0
ltibia 0
lfoot 0 0
ltoes 0
400
root 1.24603 15.6906 31.5716 -209.661 -84.7189 228.39
lowerback -27.2108 1.33035 1.98601
upperback -8.55106 0.200421 2.01644
thorax 5.52813 -0.249083 1.10057
lowerneck -18.8659 3.59167 4.23066
upperneck 25.0362 4.53453 -3.59732
head 11.4692 1.88752 -1.35958
rclavicle -7.00716e-015 8.54774e-015
rhumerus -48.4118 -1.74924 -78.2297
rradius 24.5211
rwrist -17.296
rhand -17.8742 -25.8012
rfingers 7.12502
rthumb 8.39171 -55.6145
lclavicle -7.00716e-015 8.54774e-015
lhumerus -45.6845 -9.36603 90.2354
lradius 32.8584
lwrist 37.7848
lhand -25.894 3.22918
lfingers 7.12502
lthumb 0.648076 33.2079
rfemur -26.1977 19.5995 23.2825
rtibia 24.8351
rfoot -12.4108 -13.0367
rtoes 3.92034
lfemur 0 0 0
ltibia 0
lfoot 0 0
ltoes 0
401
root 1.24988 15.6883 31.575 -209.407 -84.5529 228.011
lowerback -27.173 1.32992 2.03069
upperback -8.55749 0.185389 2.04753
thorax 5.50299 -0.257149 1.10398
lowerneck -18.8586 3.61894 4.25545
upperneck 25.0752 4.56465 -3.59431
head 11.4846 1.90296 -1.35833
rclavicle 2.93207e-015 -2.46493e-014
rhumerus -48.3312 -2.16586 -78.2218
rradius 24.6642
rwrist -17.7396
rhand -17.8499 -25.9151
rfingers 7.12502
rthumb 8.41519 -55.7275
lclavicle 2.93207e-015 -2.46493e-014
lhumerus -45.6367 -9.50778 90.3168
lradius 32.4049
lwrist 37.6136
lhand -25.9293 3.31246
lfingers 7.12502
lthumb 0.614022 33.2913
rfemur -26.0221 19.6058 23.4111
rtibia 24.7245
rfoot -12.3609 -12.888
rtoes 3.90968
lfemur 0 0 0
ltibia 0
lfoot 0 0
ltoes 0
402
root 1.25424 15.6862 31.5785 -209.034 -84.3872 227.521
lowerback -27.1364 1.32376 2.0633
upperback -8.56508 0.165432 2.08419
thorax 5.47708 -0.267645 1.11894
lowerneck -18.851 3.65247 4.27063
upperneck 25.1125 4.60627 -3.58942
head 11.4996 1.9229 -1.35296
rclavicle -4.22417e-015 -1.5704e-014
rhumerus -48.2481 -2.50062 -78.2716
rradius 24.8363
rwrist -18.2029
rhand -17.8178 -26.0181
rfingers 7.12502
rthumb 8.44614 -55.8292
lclavicle -4.22417e-015 -1.5704e-014
lhumerus -45.603 -9.63939 90.4088
lradius 31.9711
lwrist 37.4347
lhand -25.9862 3.3929
lfingers 7.12502
lthumb 0.559027 33.3719
rfemur -25.8702 19.6138 23.5227
rtibia 24.6317
rfoot -12.3164 -12.7325
rtoes 3.90187
lfemur 0 0 0
ltibia 0
lfoot 0 0
ltoes 0
403
root 1.2589 15.6842 31.5821 -208.537 -84.2257 226.914
lowerback -27.1035 1.31565 2.08201
upperback -8.57137 0.146727 2.11838
thorax 5.45439 -0.277441 1.13958
lowerneck -18.85 3.68949 4.28429
upperneck 25.1497 4.65265 -3.58243
head 11.516 1.94509 -1.3457
rclavicle -7.30534e-015 -8.54774e-015
rhumerus -48.1611 -2.73457 -78.3992
rradius 25.0394
rwrist -18.6969
rhand -17.7572 -26.1276
rfingers 7.12502
rthumb 8.50469 -55.9363
lclavicle -7.30534e-015 -8.54774e-015
lhumerus -45.5808 -9.78105 90.5114
lradius 31.5613
lwrist 37.2561
lhand -26.059 3.46703
lfingers 7.12502
lthumb 0.488754 33.4462
rfemur -25.7397 19.6261 23.6141
rtibia 24.5579
rfoot -12.2785 -12.5778
rtoes 3.89551
lfemur 0 0 0
ltibia 0
lfoot 0 0
ltoes 0
404
root 1.26373 15.6822 31.5856 -207.939 -84.0699 226.212
lowerback -27.0752 1.31329 2.09323
upperback -8.57773 0.138216 2.14102
thorax 5.43374 -0.282315 1.15504
lowerneck -18.8533 3.72278 4.29497
upperneck 25.1881 4.69272 -3.56884
head 11.5332 1.96498 -1.33642
rclavicle -6.31141e-015 1.43125e-014
rhumerus -48.0772 -2.91166 -78.5841
rradius 25.2714
rwrist -19.1532
rhand -17.6623 -26.2684
rfingers 7.12502
rthumb 8.59619 -56.0734
lclavicle -6.31141e-015 1.43125e-014
lhumerus -45.5761 -9.96466 90.6307
lradius 31.1822
lwrist 37.0943
lhand -26.1469 3.5513
lfingers 7.12502
lthumb 0.403857 33.5307
rfemur -25.6282 19.6416 23.6856
rtibia 24.502
rfoot -12.2503 -12.4232
rtoes 3.89983
lfemur 0 0 0
ltibia 0
lfoot 0 0
ltoes 0
405
root 1.26856 15.6804 31.589 -207.255 -83.915 225.427
lowerback -27.0525 1.30831 2.09075
upperback -8.58268 0.129533 2.165
thorax 5.41729 -0.28717 1.17984
lowerneck -18.8529 3.75868 4.30225
upperneck 25.2212 4.73683 -3.55223
head 11.5476 1.98688 -1.32481
rclavicle -1.40143e-014 -9.34288e-015
rhumerus -47.9901 -2.99392 -78.8268
rradius 25.526
rwrist -19.5122
rhand -17.4757 -26.428
rfingers 7.12502
rthumb 8.77632 -56.2255
lclavicle -1.40143e-014 -9.34288e-015
lhumerus -45.5852 -10.1513 90.7614
lradius 30.8303
lwrist 36.9317
lhand -26.2371 3.63082
lfingers 7.12502
lthumb 0.316767 33.6103
rfemur -25.5317 19.6574 23.7429
rtibia 24.4629
rfoot -12.2314 -12.2656
rtoes 3.90474
lfemur 0 0 0
ltibia 0
lfoot 0 0
ltoes 0
